<svg width="100" height="100" viewBox="0 0 100 100" fill="none" xmlns="http://www.w3.org/2000/svg">
<g clip-path="url(#clip0_3230_29)">
<path d="M40.625 100C39.6374 100.005 38.6718 99.7085 37.8573 99.1501C37.0427 98.5917 36.4179 97.798 36.0664 96.875L28.2852 76.6407C28.1276 76.2329 27.8865 75.8626 27.5774 75.5535C27.2683 75.2444 26.898 75.0033 26.4903 74.8457L6.25004 67.0586C5.32805 66.7048 4.53504 66.0797 3.97566 65.2658C3.41627 64.4519 3.11682 63.4876 3.11682 62.5C3.11682 61.5125 3.41627 60.5481 3.97566 59.7343C4.53504 58.9204 5.32805 58.2953 6.25004 57.9414L26.4844 50.1602C26.8922 50.0026 27.2625 49.7615 27.5716 49.4524C27.8807 49.1433 28.1217 48.773 28.2793 48.3653L36.0664 28.125C36.4203 27.2031 37.0454 26.41 37.8593 25.8507C38.6731 25.2913 39.6375 24.9918 40.625 24.9918C41.6126 24.9918 42.5769 25.2913 43.3908 25.8507C44.2047 26.41 44.8298 27.2031 45.1836 28.125L52.9649 48.3594C53.1225 48.7672 53.3636 49.1375 53.6727 49.4466C53.9818 49.7557 54.3521 49.9967 54.7598 50.1543L74.877 57.8946C75.8365 58.2502 76.6631 58.8929 77.2443 59.7352C77.8255 60.5774 78.133 61.5783 78.125 62.6016C78.1101 63.572 77.8043 64.5155 77.2472 65.3101C76.69 66.1048 75.9072 66.7139 75 67.0586L54.7657 74.8399C54.3579 74.9975 53.9876 75.2386 53.6785 75.5477C53.3694 75.8568 53.1283 76.2271 52.9707 76.6348L45.1836 96.875C44.8322 97.798 44.2074 98.5917 43.3928 99.1501C42.5782 99.7085 41.6126 100.005 40.625 100Z" fill="#DEDEDA"/>
<path d="M17.1875 34.375C16.6085 34.3749 16.0431 34.1995 15.5658 33.8717C15.0885 33.544 14.7217 33.0794 14.5137 32.539L11.2207 23.9765C11.1493 23.7892 11.0392 23.6192 10.8975 23.4775C10.7558 23.3358 10.5857 23.2256 10.3984 23.1542L1.83594 19.8613C1.29566 19.6532 0.831086 19.2864 0.503419 18.8091C0.175753 18.3318 0.000366211 17.7664 0.000366211 17.1874C0.000366211 16.6085 0.175753 16.0431 0.503419 15.5658C0.831086 15.0885 1.29566 14.7217 1.83594 14.5136L10.3984 11.2207C10.5855 11.149 10.7554 11.0387 10.8971 10.897C11.0387 10.7554 11.149 10.5855 11.2207 10.3984L14.4844 1.91206C14.6684 1.41245 14.9852 0.972451 15.4005 0.639341C15.8159 0.306231 16.3141 0.0926087 16.8418 0.0214325C17.4753 -0.0555788 18.1164 0.0810981 18.6634 0.40979C19.2103 0.738483 19.632 1.24038 19.8613 1.83589L23.1543 10.3984C23.226 10.5855 23.3363 10.7554 23.4779 10.897C23.6196 11.0387 23.7895 11.149 23.9766 11.2207L32.5391 14.5136C33.0793 14.7217 33.5439 15.0885 33.8716 15.5658C34.1992 16.0431 34.3746 16.6085 34.3746 17.1874C34.3746 17.7664 34.1992 18.3318 33.8716 18.8091C33.5439 19.2864 33.0793 19.6532 32.5391 19.8613L23.9766 23.1542C23.7893 23.2256 23.6192 23.3358 23.4775 23.4775C23.3358 23.6192 23.2257 23.7892 23.1543 23.9765L19.8613 32.539C19.6533 33.0794 19.2865 33.544 18.8092 33.8717C18.3319 34.1995 17.7665 34.3749 17.1875 34.375Z" fill="#DEDEDA"/>
<path d="M78.1251 49.9999C77.4934 49.9998 76.8767 49.8082 76.3561 49.4504C75.8356 49.0927 75.4356 48.5856 75.209 47.996L70.7481 36.4003C70.6696 36.196 70.5491 36.0104 70.3943 35.8557C70.2396 35.7009 70.054 35.5804 69.8497 35.5019L58.254 31.041C57.6648 30.814 57.1583 30.4139 56.801 29.8933C56.4438 29.3728 56.2526 28.7563 56.2526 28.1249C56.2526 27.4936 56.4438 26.8771 56.801 26.3566C57.1583 25.836 57.6648 25.4359 58.254 25.2089L69.8497 20.748C70.054 20.6695 70.2396 20.549 70.3943 20.3942C70.5491 20.2394 70.6696 20.0539 70.7481 19.8496L75.1758 8.33588C75.378 7.79142 75.7239 7.31192 76.1768 6.9484C76.6298 6.58487 77.1728 6.35092 77.7481 6.27143C78.4394 6.18775 79.1388 6.33735 79.7354 6.6965C80.332 7.05565 80.7915 7.60377 81.0411 8.25385L85.502 19.8496C85.5805 20.0539 85.701 20.2394 85.8558 20.3942C86.0106 20.549 86.1961 20.6695 86.4004 20.748L97.9961 25.2089C98.5853 25.4359 99.0918 25.836 99.4491 26.3566C99.8063 26.8771 99.9975 27.4936 99.9975 28.1249C99.9975 28.7563 99.8063 29.3728 99.4491 29.8933C99.0918 30.4139 98.5853 30.814 97.9961 31.041L86.4004 35.5019C86.1961 35.5804 86.0106 35.7009 85.8558 35.8557C85.701 36.0104 85.5805 36.196 85.502 36.4003L81.0411 47.996C80.8145 48.5856 80.4145 49.0927 79.894 49.4504C79.3734 49.8082 78.7567 49.9998 78.1251 49.9999Z" fill="#DEDEDA"/>
</g>
<defs>
<clipPath id="clip0_3230_29">
<rect width="100" height="100" fill="white"/>
</clipPath>
</defs>
</svg>
