<svg width="100" height="100" viewBox="0 0 100 100" fill="none" xmlns="http://www.w3.org/2000/svg">
<path d="M46.5 56.1504C48.9024 56.1504 50.8496 58.0976 50.8496 60.5C50.8496 62.9024 48.9024 64.8496 46.5 64.8496C44.0976 64.8496 42.1504 62.9024 42.1504 60.5C42.1504 58.0976 44.0976 56.1504 46.5 56.1504Z" fill="#DEDEDA" stroke="#DEDEDA" stroke-width="1.7"/>
<path d="M63.8564 1.15137C64.3562 1.1647 64.85 1.27264 65.3105 1.4707C65.823 1.69114 66.2818 2.01889 66.6592 2.42969L90.5762 26.4297C90.9855 26.8084 91.311 27.2689 91.5303 27.7822C91.7273 28.2436 91.8353 28.738 91.8486 29.2383V91.1455C91.8427 93.1861 91.0325 95.1421 89.5938 96.5859C88.1548 98.0298 86.2042 98.8437 84.168 98.8496H29.4971C27.4609 98.8437 25.5102 98.0298 24.0713 96.5859C22.6325 95.1421 21.8223 93.1861 21.8164 91.1455V78.2793H15.832C13.7945 78.2769 11.8413 77.4634 10.4014 76.0186C8.9615 74.5737 8.15273 72.6144 8.15039 70.5723V50L8.16016 49.6182C8.25619 47.7151 9.05163 45.9093 10.4014 44.5547C11.8413 43.1098 13.7944 42.2964 15.832 42.2939H21.8164V8.85547L21.8271 8.47461C21.9262 6.57289 22.7223 4.76872 24.0713 3.41504C25.5102 1.97115 27.4609 1.15731 29.4971 1.15137H63.8564ZM30.3496 42.2939H48.6631L49.0068 42.3018C50.6087 42.3738 52.1477 42.9477 53.4072 43.9424L53.6729 44.1611L53.6807 44.168L65.3086 54.4824H65.3076C66.1351 55.2088 66.7982 56.1045 67.251 57.1094C67.7041 58.1152 67.9362 59.2069 67.9326 60.3105C67.929 61.4145 67.6894 62.5057 67.2295 63.5088C66.771 64.5085 66.1033 65.3971 65.2734 66.1172L65.2744 66.1182L53.7148 76.375L53.71 76.3799C52.3111 77.6007 50.5199 78.2756 48.665 78.2793H30.3496V90.293H83.3154V37.1367H63.6631C61.627 37.1307 59.6761 36.3159 58.2373 34.8721C56.7987 33.4283 55.9883 31.4721 55.9824 29.4316V9.70801H30.3496V42.2939ZM16.6836 69.7217H48.335L58.9678 60.2871L48.2998 50.8506H16.6836V69.7217ZM64.5156 28.5791H80.752L64.5156 12.2871V28.5791Z" fill="#DEDEDA" stroke="#DEDEDA" stroke-width="1.7"/>
</svg>
